Jump_normalized_Precision Landing05_filtered_grf
version=1
nRows=10
nColumns=37
inDegrees=yes
endheader
time		1_ground_force_vx		1_ground_force_vy		1_ground_force_vz		1_ground_force_px		1_ground_force_py		1_ground_force_pz		1_ground_torque_x		1_ground_torque_y		1_ground_torque_z		2_ground_force_vx		2_ground_force_vy		2_ground_force_vz		2_ground_force_px		2_ground_force_py		2_ground_force_pz		2_ground_torque_x		2_ground_torque_y		2_ground_torque_z		3_ground_force_vx		3_ground_force_vy		3_ground_force_vz		3_ground_force_px		3_ground_force_py		3_ground_force_pz		3_ground_torque_x		3_ground_torque_y		3_ground_torque_z		4_ground_force_vx		4_ground_force_vy		4_ground_force_vz		4_ground_force_px		4_ground_force_py		4_ground_force_pz		4_ground_torque_x		4_ground_torque_y		4_ground_torque_z		
0.832833		-0.000000		-0.000000		-0.000000		0.085807		0.000000		0.311172		-0.000000		-0.000000		0.000000		-0.000000		-0.000000		-0.000000		-0.174735		0.000000		0.224768		-0.000000		0.000000		-0.000000		-43.682862		494.084474		-47.668611		0.352136		1.255511		1.895299		2.133376		-24.130011		2.328033		2.443607		284.076628		-43.870236		-0.289067		1.264219		1.904269		2.901786		26.308343		37.370598		
0.836975		0.000000		-0.000000		-0.000000		0.085807		0.000000		0.311172		-0.000000		-0.000000		0.000000		-0.000000		-0.000000		-0.000000		-0.174735		0.000000		0.224768		-0.000000		0.000000		-0.000000		-44.556098		491.688541		-54.054515		0.352070		1.255543		1.895467		2.179586		-24.052326		2.644229		0.811093		261.013576		-42.237697		-0.289037		1.264245		1.904229		2.736139		24.447794		34.272755		
0.841116		0.000000		-0.000000		-0.000000		0.085807		0.000000		0.311172		-0.000000		-0.000000		0.000000		-0.000000		-0.000000		-0.000000		-0.174735		0.000000		0.224768		-0.000000		0.000000		-0.000000		-45.426356		488.655409		-60.729909		0.352045		1.255548		1.895596		2.226500		-23.950659		2.976581		-1.084674		235.577677		-39.960113		-0.289011		1.264273		1.904163		2.541487		22.305887		30.870705		
0.845258		0.000000		0.000000		0.000000		0.085807		0.000000		0.311172		0.000000		-0.000000		-0.000000		-0.000000		0.000000		-0.000000		-0.174735		0.000000		0.224768		-0.000000		0.000000		0.000000		-46.274261		485.202353		-67.550378		0.352049		1.255533		1.895694		2.273882		-23.842470		3.319378		-3.345523		208.335730		-36.994959		-0.288993		1.264301		1.904070		2.318932		19.924442		27.236667		
0.849399		0.000000		0.000000		0.000000		0.085807		0.000000		0.311172		0.000000		0.000000		-0.000000		0.000000		0.000000		0.000000		-0.174735		0.000000		0.224768		0.000000		-0.000000		0.000000		-47.054306		481.394824		-74.417827		0.352065		1.255511		1.895769		2.319933		-23.734358		3.669048		-5.991034		180.060936		-33.226758		-0.288992		1.264330		1.903954		-0.416152		12.507638		-2.308041		
0.853540		-0.000000		0.000000		0.000000		0.085807		0.000000		0.311172		0.000000		0.000000		-0.000000		0.000000		0.000000		0.000000		-0.174735		0.000000		0.224768		0.000000		-0.000000		0.000000		-47.690755		477.149555		-81.297791		0.352078		1.255490		1.895830		2.360571		-23.617691		4.024035		-8.912575		151.607381		-28.441269		-0.289005		1.264362		1.903826		-0.611636		10.404325		-1.951833		
0.857682		-0.000000		0.000000		0.000000		0.085807		0.000000		0.311172		0.000000		0.000000		-0.000000		0.000000		0.000000		0.000000		-0.174735		0.000000		0.224768		0.000000		-0.000000		0.000000		-48.135464		472.271055		-88.146771		0.352084		1.255477		1.895875		2.392094		-23.469528		4.380462		-11.879573		123.752180		-22.404111		-0.289026		1.264396		1.903692		-0.799592		8.329846		-1.508046		
0.861823		-0.000000		-0.000000		-0.000000		0.085807		0.000000		0.311172		-0.000000		0.000000		0.000000		0.000000		-0.000000		0.000000		-0.174735		0.000000		0.224768		-0.000000		-0.000000		-0.000000		-48.411849		466.464962		-94.951479		0.352079		1.255474		1.895902		2.413820		-23.257989		4.734293		-14.543539		97.098815		-15.109970		-0.289042		1.264431		1.903555		-0.946866		6.322075		-0.983841		
0.865965		-0.000000		-0.000000		-0.000000		0.085807		0.000000		0.311172		-0.000000		-0.000000		0.000000		-0.000000		-0.000000		-0.000000		-0.174735		0.000000		0.224768		-0.000000		0.000000		-0.000000		-48.576259		459.354651		-101.649084		0.352064		1.255479		1.895915		2.427055		-22.951109		5.078776		-16.443352		72.164355		-7.095974		-0.289045		1.264466		1.903409		-1.006345		4.416654		-0.434320		
0.870106		0.000000		-0.000000		-0.000000		0.085807		0.000000		0.311172		-0.000000		-0.000000		0.000000		-0.000000		-0.000000		-0.000000		-0.174735		0.000000		0.224768		-0.000000		0.000000		-0.000000		-48.615374		450.480481		-108.187628		0.352036		1.255490		1.895917		2.430586		-22.522332		5.408975		-17.082416		49.591603		0.388359		-0.289039		1.264504		1.903253		-0.924743		2.685072		0.020871		
